<?xml version="1.0" encoding="UTF-8" standalone="no"?>
<!-- Generator: Adobe Illustrator 18.0.0, SVG Export Plug-In . SVG Version: 6.00 Build 0)  -->

<svg
   xmlns:dc="http://purl.org/dc/elements/1.1/"
   xmlns:cc="http://creativecommons.org/ns#"
   xmlns:rdf="http://www.w3.org/1999/02/22-rdf-syntax-ns#"
   xmlns:svg="http://www.w3.org/2000/svg"
   xmlns="http://www.w3.org/2000/svg"
   xmlns:sodipodi="http://sodipodi.sourceforge.net/DTD/sodipodi-0.dtd"
   xmlns:inkscape="http://www.inkscape.org/namespaces/inkscape"
   version="1.1"
   id="Capa_1"
   x="0px"
   y="0px"
   viewBox="0 0 424.239 424.239"
   style="enable-background:new 0 0 424.239 424.239;"
   xml:space="preserve"
   sodipodi:docname="logo.svg"
   inkscape:version="0.92.4 (f8dce91, 2019-08-02)"><metadata
   id="metadata47"><rdf:RDF><cc:Work
       rdf:about=""><dc:format>image/svg+xml</dc:format><dc:type
         rdf:resource="http://purl.org/dc/dcmitype/StillImage" /></cc:Work></rdf:RDF></metadata><defs
   id="defs45">
	
	
	
	
</defs><sodipodi:namedview
   pagecolor="#ffffff"
   bordercolor="#666666"
   borderopacity="1"
   objecttolerance="10"
   gridtolerance="10"
   guidetolerance="10"
   inkscape:pageopacity="0"
   inkscape:pageshadow="2"
   inkscape:window-width="1366"
   inkscape:window-height="704"
   id="namedview43"
   showgrid="false"
   inkscape:zoom="1.1125804"
   inkscape:cx="256.79929"
   inkscape:cy="213.84891"
   inkscape:window-x="0"
   inkscape:window-y="27"
   inkscape:window-maximized="1"
   inkscape:current-layer="Capa_1" />
















<path
   sodipodi:nodetypes="sccsccscccscc"
   d="m 394.08952,239.30163 c 0,-20.24612 -14.86549,-37.12797 -34.41111,-40.64874 30.45634,-227.128631 -325.56342,-222.908618 -289.258118,1.67478 -19.545615,3.52078 -33.560616,18.72691 -33.560616,38.97396 0,21.05665 16.077633,38.47422 36.778614,41.0065 5.198664,28.26312 18.859589,54.33403 39.74792,75.1969 27.2717,27.23829 63.52611,42.23817 102.0884,42.23817 h 0.0142 c 38.51307,-0.004 74.72016,-14.77255 101.95306,-41.58507 21.27252,-20.94486 35.0801,-47.28129 40.1075,-75.87981 20.58555,-2.63757 36.54016,-20.00202 36.54016,-40.97669 z M 215.48784,382.83556 c -403.14345,11.91461 -201.571734,5.95731 0,0 z"
   id="path906"
   inkscape:connector-curvature="0"
   style="fill:#deaa87;stroke-width:0.93892854" /><g
   id="g898"
   transform="translate(5.0683594e-4,-14.812246)"><path
     d="m 129.287,245.558 c 3.906,0 7.578,1.521 10.34,4.283 1.562,1.562 3.609,2.344 5.657,2.343 2.047,0 4.095,-0.781 5.657,-2.343 3.125,-3.124 3.125,-8.189 0,-11.314 -5.784,-5.784 -13.474,-8.969 -21.653,-8.969 -8.179,0 -15.869,3.185 -21.653,8.969 -3.125,3.124 -3.125,8.189 0,11.314 3.125,3.125 8.19,3.124 11.313,0 2.761,-2.762 6.433,-4.283 10.339,-4.283 z"
     id="path2"
     inkscape:connector-curvature="0" /><path
     d="m 273.298,238.527 c -3.125,3.124 -3.125,8.189 0,11.314 3.124,3.124 8.189,3.124 11.313,0 5.701,-5.702 14.979,-5.701 20.68,0 1.562,1.562 3.609,2.343 5.657,2.343 2.048,0 4.095,-0.781 5.657,-2.343 3.125,-3.124 3.125,-8.189 0,-11.314 -11.938,-11.939 -31.366,-11.94 -43.307,0 z"
     id="path4"
     inkscape:connector-curvature="0" /><path
     d="m 294.908,317.447 c -45.65,45.65 -119.927,45.65 -165.578,0 -3.124,-3.124 -8.189,-3.124 -11.313,0 -3.125,3.124 -3.125,8.19 0,11.314 25.944,25.944 60.023,38.916 94.102,38.916 34.08,0 68.159,-12.972 94.103,-38.916 3.125,-3.124 3.125,-8.189 0,-11.314 -3.124,-3.124 -8.19,-3.124 -11.314,0 z"
     id="path6"
     inkscape:connector-curvature="0" /><path
     sodipodi:nodetypes="sccsccscccsscscsccscscscccscsc"
     d="m 400.881,254.178 c 0,-21.731 -15.71,-39.851 -36.366,-43.63 C 396.70155,-33.2387 20.456388,-28.709183 58.824189,212.34562 38.168189,216.12462 23.357,232.446 23.357,254.178 c 0,22.601 16.991,41.296 38.868,44.014 5.494,30.336 19.931,58.319 42.006,80.712 28.821,29.236 67.135,45.336 107.888,45.336 h 0.015 c 40.701,-0.004 78.965,-15.856 107.745,-44.635 22.481,-22.481 37.073,-50.749 42.386,-81.445 21.755,-2.831 38.616,-21.469 38.616,-43.982 z m -361.524,0 c 0,-12.863 8.609,-23.747 20.366,-27.21 v 43.362 c 0,3.746 0.135,7.471 0.398,11.172 C 48.162,278.169 39.357,267.186 39.357,254.178 Z M 308.566,368.29 c -25.758,25.758 -60.005,39.945 -96.433,39.949 h -0.014 c -36.433,0 -70.705,-14.409 -96.494,-40.568 C 89.894,341.569 77.293101,306.96537 75.723,270.329 L 73.180777,211.00935 C 51.766927,-14.479925 371.7166,0.52046151 351.71366,208.99596 c -2.42802,25.30545 -3.19966,46.14341 -3.19966,62.84604 10e-4,36.434 -14.186,70.687 -39.948,96.448 z m 55.64,-86.814 c 0.198,-3.194 0.309,-6.405 0.309,-9.633 v -44.875 c 11.757,3.463 20.366,14.347 20.366,27.21 0,12.975 -8.76,23.936 -20.675,27.298 z"
     id="path8"
     inkscape:connector-curvature="0" /><g
     id="g12">
</g><g
     id="g14">
</g><g
     id="g16">
</g><g
     id="g18">
</g><g
     id="g20">
</g><g
     id="g22">
</g><g
     id="g24">
</g><g
     id="g26">
</g><g
     id="g28">
</g><g
     id="g30">
</g><g
     id="g32">
</g><g
     id="g34">
</g><g
     id="g36">
</g><g
     id="g38">
</g><g
     id="g40">
</g></g><g
   id="g908"
   transform="translate(413.45379,-20.260086)">
</g><g
   id="g910"
   transform="translate(413.45379,-20.260086)">
</g><g
   id="g912"
   transform="translate(413.45379,-20.260086)">
</g><g
   id="g914"
   transform="translate(413.45379,-20.260086)">
</g><g
   id="g916"
   transform="translate(413.45379,-20.260086)">
</g><g
   id="g918"
   transform="translate(413.45379,-20.260086)">
</g><g
   id="g920"
   transform="translate(413.45379,-20.260086)">
</g><g
   id="g922"
   transform="translate(413.45379,-20.260086)">
</g><g
   id="g924"
   transform="translate(413.45379,-20.260086)">
</g><g
   id="g926"
   transform="translate(413.45379,-20.260086)">
</g><g
   id="g928"
   transform="translate(413.45379,-20.260086)">
</g><g
   id="g930"
   transform="translate(413.45379,-20.260086)">
</g><g
   id="g932"
   transform="translate(413.45379,-20.260086)">
</g><g
   id="g934"
   transform="translate(413.45379,-20.260086)">
</g><g
   id="g936"
   transform="translate(413.45379,-20.260086)">
</g></svg>